M48
;GenerationSoftware,Autodesk,EAGLE,9.6.2*%
;CreationDate,2023-05-03T01:04:07Z*%
FMAT,2
ICI,OFF
METRIC,TZ,000.000
T6C0.305
T5C0.889
T4C0.950
T3C1.020
T2C1.400
T1C2.300
%
G90
M71
T1
X54280Y54610
X42240Y54610
T2
X35520Y26770
X30520Y26770
X30520Y39270
X35520Y39270
X34250Y6450
X29250Y6450
X17740Y48360
X35520Y48360
X30520Y48360
X30520Y60860
X35520Y60860
X29250Y18950
X34250Y18950
X12740Y48360
X12740Y60860
X17740Y60860
X17740Y26770
X12740Y26770
X12740Y39270
X17740Y39270
X17740Y6450
X12740Y6450
X12740Y18950
X17740Y18950
T3
X110490Y46990
X110490Y49530
X110490Y52070
X110490Y57150
X110490Y59690
X110490Y54610
X97790Y44450
X97790Y46990
X97790Y49530
X97790Y52070
X97790Y54610
X97790Y57150
X97790Y25400
X97790Y59690
X97790Y41910
X110490Y41910
X110490Y44450
X97790Y35560
X97790Y33020
X97790Y30480
X97790Y27940
X97790Y22860
X97790Y20320
X97790Y17780
X110490Y17780
X110490Y20320
X110490Y22860
X110490Y25400
X110490Y27940
X110490Y30480
X110490Y33020
X110490Y35560
T4
X47010Y49900
X49510Y49900
X49510Y51900
X47010Y51900
T5
X89890Y43620
X87350Y41080
X89890Y41080
X87350Y38540
X89890Y38540
X87350Y36000
X89890Y36000
X87350Y33460
X89890Y33460
X87350Y30920
X89890Y30920
X87350Y28380
X89890Y28380
X87350Y25840
X89890Y25840
X87350Y23300
X89890Y23300
X64490Y28380
X89890Y20760
X87350Y18220
X89890Y18220
X87350Y15680
X89890Y15680
X61950Y51240
X61950Y58860
X64490Y58860
X61950Y56320
X64490Y56320
X61950Y53780
X87350Y20760
X64490Y53780
X64490Y51240
X60960Y6350
X63500Y6350
X66040Y6350
X44450Y6350
X46990Y6350
X49530Y6350
X77470Y6350
X80010Y6350
X82550Y6350
X61950Y48700
X64490Y48700
X61950Y46160
X64490Y46160
X61950Y43620
X64490Y43620
X61950Y41080
X64490Y41080
X61950Y38540
X64490Y38540
X61950Y36000
X64490Y36000
X61950Y33460
X64490Y33460
X61950Y30920
X64490Y30920
X61950Y28380
X61950Y25840
X64490Y25840
X61950Y23300
X107950Y6350
X110490Y6350
X113030Y6350
X115570Y6350
X64490Y23300
X61950Y20760
X64490Y20760
X61950Y18220
X89890Y46160
X64490Y18220
X61950Y15680
X64490Y15680
X87350Y58860
X89890Y58860
X87350Y56320
X89890Y56320
X87350Y53780
X89890Y53780
X87350Y51240
X89890Y51240
X92710Y6350
X95250Y6350
X97790Y6350
X100330Y6350
X87350Y48700
X89890Y48700
X87350Y46160
X87350Y43620
T6
X115062Y11430
X108458Y42926
X46482Y27940
X45466Y28956
X65786Y52578
X38100Y18034
X66040Y44704
M30