G04 EAGLE Gerber RS-274X export*
G75*
%MOMM*%
%FSLAX34Y34*%
%LPD*%
%INCopper Layer 2*%
%IPPOS*%
%AMOC8*
5,1,8,0,0,1.08239X$1,22.5*%
G01*
%ADD10C,1.960000*%
%ADD11C,1.244600*%
%ADD12C,1.428000*%
%ADD13C,1.330000*%
%ADD14C,0.609600*%


D10*
X355200Y483600D03*
X305200Y483600D03*
X305200Y608600D03*
X355200Y608600D03*
D11*
X619500Y588600D03*
X644900Y588600D03*
X619500Y563200D03*
X644900Y563200D03*
X619500Y537800D03*
X644900Y537800D03*
X619500Y512400D03*
X644900Y512400D03*
X619500Y487000D03*
X644900Y487000D03*
X619500Y461600D03*
X644900Y461600D03*
X619500Y436200D03*
X644900Y436200D03*
X619500Y410800D03*
X644900Y410800D03*
X619500Y385400D03*
X644900Y385400D03*
X619500Y360000D03*
X644900Y360000D03*
X619500Y334600D03*
X644900Y334600D03*
X619500Y309200D03*
X644900Y309200D03*
X619500Y283800D03*
X644900Y283800D03*
X619500Y258400D03*
X644900Y258400D03*
X619500Y233000D03*
X644900Y233000D03*
X619500Y207600D03*
X644900Y207600D03*
X619500Y182200D03*
X644900Y182200D03*
X619500Y156800D03*
X644900Y156800D03*
X873500Y588600D03*
X898900Y588600D03*
X873500Y563200D03*
X898900Y563200D03*
X873500Y537800D03*
X898900Y537800D03*
X873500Y512400D03*
X898900Y512400D03*
X873500Y487000D03*
X898900Y487000D03*
X873500Y461600D03*
X898900Y461600D03*
X873500Y436200D03*
X898900Y436200D03*
X873500Y410800D03*
X898900Y410800D03*
X873500Y385400D03*
X898900Y385400D03*
X873500Y360000D03*
X898900Y360000D03*
X873500Y334600D03*
X898900Y334600D03*
X873500Y309200D03*
X898900Y309200D03*
X873500Y283800D03*
X898900Y283800D03*
X873500Y258400D03*
X898900Y258400D03*
X873500Y233000D03*
X898900Y233000D03*
X873500Y207600D03*
X898900Y207600D03*
X873500Y182200D03*
X898900Y182200D03*
X873500Y156800D03*
X898900Y156800D03*
D12*
X977900Y596900D03*
X977900Y571500D03*
X977900Y546100D03*
X977900Y520700D03*
X977900Y495300D03*
X977900Y469900D03*
X977900Y444500D03*
X977900Y419100D03*
X1104900Y419100D03*
X1104900Y444500D03*
X1104900Y469900D03*
X1104900Y495300D03*
X1104900Y520700D03*
X1104900Y546100D03*
X1104900Y571500D03*
X1104900Y596900D03*
D11*
X609600Y63500D03*
X635000Y63500D03*
X660400Y63500D03*
X444500Y63500D03*
X469900Y63500D03*
X495300Y63500D03*
X774700Y63500D03*
X800100Y63500D03*
X825500Y63500D03*
D10*
X355200Y267700D03*
X305200Y267700D03*
X305200Y392700D03*
X355200Y392700D03*
X342500Y64500D03*
X292500Y64500D03*
X292500Y189500D03*
X342500Y189500D03*
X177400Y483600D03*
X127400Y483600D03*
X127400Y608600D03*
X177400Y608600D03*
X177400Y267700D03*
X127400Y267700D03*
X127400Y392700D03*
X177400Y392700D03*
X177400Y64500D03*
X127400Y64500D03*
X127400Y189500D03*
X177400Y189500D03*
D11*
X1079500Y63500D03*
X1104900Y63500D03*
X1130300Y63500D03*
X1155700Y63500D03*
D12*
X977900Y355600D03*
X977900Y330200D03*
X977900Y304800D03*
X977900Y279400D03*
X977900Y254000D03*
X977900Y228600D03*
X977900Y203200D03*
X977900Y177800D03*
X1104900Y177800D03*
X1104900Y203200D03*
X1104900Y228600D03*
X1104900Y254000D03*
X1104900Y279400D03*
X1104900Y304800D03*
X1104900Y330200D03*
X1104900Y355600D03*
D11*
X927100Y63500D03*
X952500Y63500D03*
X977900Y63500D03*
X1003300Y63500D03*
D13*
X470100Y499000D03*
X495100Y499000D03*
X495100Y519000D03*
X470100Y519000D03*
D14*
X657860Y525780D03*
X454660Y289560D03*
X464820Y279400D03*
X1084580Y429260D03*
X1150620Y114300D03*
X660400Y447040D03*
X381000Y180340D03*
M02*
